# xmcd
#
# Track frame offsets: 
#        150
#        16233
#        35237
#        65063
#        96373
#        166627
#        193295
#        256450
#
# Disc length: 3789 seconds
#
# Revision: 0
# Processed by: cddbd v1.5.2PL0 Copyright (c) Steve Scherf et al.
# Submitted via: ExactAudioCopy v1.0b3
#
DISCID=6f0ecb08
DTITLE=Savoy Brown - Hellbound Train
DYEAR=2011
DGENRE=Blues Rock
TTITLE0=Ain't No Need To Worry
TTITLE1=Going Down To Mobile
TTITLE2=Spoonful
TTITLE3=Headline News
TTITLE4=Hellbound Train
TTITLE5=Listen To Your Heart
TTITLE6=Street Corner Talking
TTITLE7=When You Got A Good Friend
EXTD=
EXTT0=
EXTT1=
EXTT2=
EXTT3=
EXTT4=
EXTT5=
EXTT6=
EXTT7=
PLAYORDER=
